{
    "asset" : {
        "generator" : "Khronos glTF Blender I/O v1.7.30",
        "version" : "2.0"
    },
    "scene" : 0,
    "scenes" : [
        {
            "name" : "Scene",
            "nodes" : [
                0,
                1,
                2
            ]
        }
    ],
    "nodes" : [
        {
            "name" : "Point",
            "rotation" : [
                0.2710818946361542,
                0.7608345150947571,
                -0.4756513237953186,
                0.34842684864997864
            ],
            "translation" : [
                8.887356758117676,
                6.21388053894043,
                -8.609142303466797
            ]
        },
        {
            "mesh" : 0,
            "name" : "Cube",
            "scale" : [
                0.6770319938659668,
                1,
                1
            ],
            "translation" : [
                0,
                1.0244203805923462,
                0
            ]
        },
        {
            "mesh" : 1,
            "name" : "Cylinder",
            "rotation" : [
                0,
                0,
                -0.7030064463615417,
                0.711183488368988
            ],
            "translation" : [
                1.1586064100265503,
                0,
                0
            ]
        }
    ],
    "materials" : [
        {
            "doubleSided" : true,
            "name" : "\u041c\u0430\u0442\u0435\u0440\u0438\u0430\u043b",
            "pbrMetallicRoughness" : {
                "baseColorFactor" : [
                    0.800000011920929,
                    0.800000011920929,
                    0.800000011920929,
                    1
                ],
                "metallicFactor" : 0,
                "roughnessFactor" : 0.4000000059604645
            }
        }
    ],
    "meshes" : [
        {
            "name" : "Cube.001",
            "primitives" : [
                {
                    "attributes" : {
                        "POSITION" : 0,
                        "NORMAL" : 1,
                        "TEXCOORD_0" : 2
                    },
                    "indices" : 3,
                    "material" : 0
                }
            ]
        },
        {
            "name" : "Cylinder",
            "primitives" : [
                {
                    "attributes" : {
                        "POSITION" : 4,
                        "NORMAL" : 5,
                        "TEXCOORD_0" : 6
                    },
                    "indices" : 7
                }
            ]
        }
    ],
    "accessors" : [
        {
            "bufferView" : 0,
            "componentType" : 5126,
            "count" : 326,
            "max" : [
                1.2145752906799316,
                1.1864980459213257,
                1.983433485031128
            ],
            "min" : [
                -0.981651782989502,
                -0.9914386868476868,
                -2.066434621810913
            ],
            "type" : "VEC3"
        },
        {
            "bufferView" : 1,
            "componentType" : 5126,
            "count" : 326,
            "type" : "VEC3"
        },
        {
            "bufferView" : 2,
            "componentType" : 5126,
            "count" : 326,
            "type" : "VEC2"
        },
        {
            "bufferView" : 3,
            "componentType" : 5123,
            "count" : 492,
            "type" : "SCALAR"
        },
        {
            "bufferView" : 4,
            "componentType" : 5126,
            "count" : 576,
            "max" : [
                -0.1375914365053177,
                0.6588205099105835,
                0.8408390283584595
            ],
            "min" : [
                -1.8200912475585938,
                -0.4099223017692566,
                -0.840839147567749
            ],
            "type" : "VEC3"
        },
        {
            "bufferView" : 5,
            "componentType" : 5126,
            "count" : 576,
            "type" : "VEC3"
        },
        {
            "bufferView" : 6,
            "componentType" : 5126,
            "count" : 576,
            "type" : "VEC2"
        },
        {
            "bufferView" : 7,
            "componentType" : 5123,
            "count" : 948,
            "type" : "SCALAR"
        }
    ],
    "bufferViews" : [
        {
            "buffer" : 0,
            "byteLength" : 3912,
            "byteOffset" : 0
        },
        {
            "buffer" : 0,
            "byteLength" : 3912,
            "byteOffset" : 3912
        },
        {
            "buffer" : 0,
            "byteLength" : 2608,
            "byteOffset" : 7824
        },
        {
            "buffer" : 0,
            "byteLength" : 984,
            "byteOffset" : 10432
        },
        {
            "buffer" : 0,
            "byteLength" : 6912,
            "byteOffset" : 11416
        },
        {
            "buffer" : 0,
            "byteLength" : 6912,
            "byteOffset" : 18328
        },
        {
            "buffer" : 0,
            "byteLength" : 4608,
            "byteOffset" : 25240
        },
        {
            "buffer" : 0,
            "byteLength" : 1896,
            "byteOffset" : 29848
        }
    ],
    "buffers" : [
        {
            "byteLength" : 31744,
            "uri" : "data:application/octet-stream;base64,"
        }
    ]
}
