{
    "asset" : {
        "generator" : "Khronos glTF Blender I/O v1.7.30",
        "version" : "2.0"
    },
    "scene" : 0,
    "scenes" : [
        {
            "name" : "Scene",
            "nodes" : [
                0
            ]
        }
    ],
    "nodes" : [
        {
            "mesh" : 0,
            "name" : "\u041f\u043b\u043e\u0441\u043a\u043e\u0441\u0442\u044c.001",
            "translation" : [
                93.86590576171875,
                1.6522212028503418,
                2.7757229804992676
            ]
        }
    ],
    "materials" : [
        {
            "doubleSided" : true,
            "name" : "\u041c\u0430\u0442\u0435\u0440\u0438\u0430\u043b.003",
            "pbrMetallicRoughness" : {}
        }
    ],
    "meshes" : [
        {
            "name" : "\u041f\u043b\u043e\u0441\u043a\u043e\u0441\u0442\u044c.009",
            "primitives" : [
                {
                    "attributes" : {
                        "POSITION" : 0,
                        "NORMAL" : 1,
                        "TEXCOORD_0" : 2
                    },
                    "indices" : 3,
                    "material" : 0
                }
            ]
        }
    ],
    "accessors" : [
        {
            "bufferView" : 0,
            "componentType" : 5126,
            "count" : 7650,
            "max" : [
                32,
                20.0950984954834,
                32.938838958740234
            ],
            "min" : [
                -96.05960845947266,
                -0.8180193901062012,
                -32
            ],
            "type" : "VEC3"
        },
        {
            "bufferView" : 1,
            "componentType" : 5126,
            "count" : 7650,
            "type" : "VEC3"
        },
        {
            "bufferView" : 2,
            "componentType" : 5126,
            "count" : 7650,
            "type" : "VEC2"
        },
        {
            "bufferView" : 3,
            "componentType" : 5123,
            "count" : 11532,
            "type" : "SCALAR"
        }
    ],
    "bufferViews" : [
        {
            "buffer" : 0,
            "byteLength" : 91800,
            "byteOffset" : 0
        },
        {
            "buffer" : 0,
            "byteLength" : 91800,
            "byteOffset" : 91800
        },
        {
            "buffer" : 0,
            "byteLength" : 61200,
            "byteOffset" : 183600
        },
        {
            "buffer" : 0,
            "byteLength" : 23064,
            "byteOffset" : 244800
        }
    ],
    "buffers" : [
        {
            "byteLength" : 267864,
            "uri" : "data:application/octet-stream;base64,"
        }
    ]
}
