{
    "asset" : {
        "generator" : "Khronos glTF Blender I/O v1.7.30",
        "version" : "2.0"
    },
    "scene" : 0,
    "scenes" : [
        {
            "name" : "Scene",
            "nodes" : [
                0
            ]
        }
    ],
    "nodes" : [
        {
            "mesh" : 0,
            "name" : "\u041f\u043b\u043e\u0441\u043a\u043e\u0441\u0442\u044c.002",
            "translation" : [
                93.86590576171875,
                2.9199538230895996,
                2.7757229804992676
            ]
        }
    ],
    "materials" : [
        {
            "doubleSided" : true,
            "name" : "\u041c\u0430\u0442\u0435\u0440\u0438\u0430\u043b.007",
            "pbrMetallicRoughness" : {
                "baseColorFactor" : [
                    0,
                    0.00014044925046619028,
                    0.004253854509443045,
                    1
                ],
                "metallicFactor" : 0.4705882668495178,
                "roughnessFactor" : 0.5
            }
        },
        {
            "doubleSided" : true,
            "emissiveFactor" : [
                0.44085769914090633,
                1,
                1
            ],
            "name" : "\u041c\u0430\u0442\u0435\u0440\u0438\u0430\u043b.006",
            "pbrMetallicRoughness" : {}
        }
    ],
    "meshes" : [
        {
            "name" : "\u041f\u043b\u043e\u0441\u043a\u043e\u0441\u0442\u044c.002",
            "primitives" : [
                {
                    "attributes" : {
                        "POSITION" : 0,
                        "NORMAL" : 1,
                        "TEXCOORD_0" : 2
                    },
                    "indices" : 3,
                    "material" : 0
                },
                {
                    "attributes" : {
                        "POSITION" : 4,
                        "NORMAL" : 5,
                        "TEXCOORD_0" : 6
                    },
                    "indices" : 7,
                    "material" : 1
                }
            ]
        }
    ],
    "accessors" : [
        {
            "bufferView" : 0,
            "componentType" : 5126,
            "count" : 7650,
            "max" : [
                32,
                20.0950984954834,
                32.938838958740234
            ],
            "min" : [
                -96.05960845947266,
                -0.8180193901062012,
                -32
            ],
            "type" : "VEC3"
        },
        {
            "bufferView" : 1,
            "componentType" : 5126,
            "count" : 7650,
            "type" : "VEC3"
        },
        {
            "bufferView" : 2,
            "componentType" : 5126,
            "count" : 7650,
            "type" : "VEC2"
        },
        {
            "bufferView" : 3,
            "componentType" : 5123,
            "count" : 11532,
            "type" : "SCALAR"
        },
        {
            "bufferView" : 4,
            "componentType" : 5126,
            "count" : 27620,
            "max" : [
                32.07289123535156,
                20.111669540405273,
                32.938838958740234
            ],
            "min" : [
                -96.13249969482422,
                -0.8180193901062012,
                -32.075782775878906
            ],
            "type" : "VEC3"
        },
        {
            "bufferView" : 5,
            "componentType" : 5126,
            "count" : 27620,
            "type" : "VEC3"
        },
        {
            "bufferView" : 6,
            "componentType" : 5126,
            "count" : 27620,
            "type" : "VEC2"
        },
        {
            "bufferView" : 7,
            "componentType" : 5123,
            "count" : 138384,
            "type" : "SCALAR"
        }
    ],
    "bufferViews" : [
        {
            "buffer" : 0,
            "byteLength" : 91800,
            "byteOffset" : 0
        },
        {
            "buffer" : 0,
            "byteLength" : 91800,
            "byteOffset" : 91800
        },
        {
            "buffer" : 0,
            "byteLength" : 61200,
            "byteOffset" : 183600
        },
        {
            "buffer" : 0,
            "byteLength" : 23064,
            "byteOffset" : 244800
        },
        {
            "buffer" : 0,
            "byteLength" : 331440,
            "byteOffset" : 267864
        },
        {
            "buffer" : 0,
            "byteLength" : 331440,
            "byteOffset" : 599304
        },
        {
            "buffer" : 0,
            "byteLength" : 220960,
            "byteOffset" : 930744
        },
        {
            "buffer" : 0,
            "byteLength" : 276768,
            "byteOffset" : 1151704
        }
    ],
    "buffers" : [
        {
            "byteLength" : 1428472,
            "uri" : "data:application/octet-stream;base64,"
        }
    ]
}
