<?xml version="1.0" encoding="iso-8859-1"?>
<!-- Generator: Adobe Illustrator 19.0.0, SVG Export Plug-In . SVG Version: 6.00 Build 0)  -->
<svg version="1.1" id="Layer_1" xmlns="http://www.w3.org/2000/svg" xmlns:xlink="http://www.w3.org/1999/xlink" x="0px" y="0px"
	 viewBox="0 0 451 451" style="enable-background:new 0 0 451 451;" xml:space="preserve">
<g>
	<path style="fill:#F8A805;" d="M349.18,88.5h-0.359c-9.826,0-17.82,7.994-17.82,17.82v16.18h36v-16.18
		C367,96.494,359.006,88.5,349.18,88.5z"/>
	<rect x="191" y="88.5" style="fill:#3E81C8;" width="36" height="34"/>
	<rect x="80" y="78.5" style="fill:#A18671;" width="70" height="44"/>
	<rect x="8" y="122.5" style="fill:#ECF0F1;" width="435" height="250"/>
	<path style="fill:#3E81C8;" d="M235.5,155c-51.005,0-92.5,41.495-92.5,92.5s41.495,92.5,92.5,92.5s92.5-41.495,92.5-92.5
		S286.505,155,235.5,155z"/>
	<path style="fill:#A18671;" d="M235.5,192.5c-30.327,0-55,24.673-55,55s24.673,55,55,55s55-24.673,55-55S265.827,192.5,235.5,192.5
		z"/>
	<path style="fill:#D1D5D8;" d="M228.5,223.5c-9.374,0-17,7.626-17,17s7.626,17,17,17s17-7.626,17-17S237.874,223.5,228.5,223.5z"/>
	<rect x="51" y="162.5" style="fill:#F8A805;" width="50" height="35.33"/>
	<rect x="51" y="229.83" style="fill:#3E81C8;" width="50" height="35.34"/>
	<rect x="51" y="297.17" style="fill:#F8A805;" width="50" height="35.33"/>
	<path style="fill:#3E81C8;" d="M393.51,162.5h-15.02c-9.645,0-17.49,7.846-17.49,17.49v0.35c0,9.644,7.846,17.49,17.49,17.49h15.02
		c9.645,0,17.49-7.846,17.49-17.49v-0.35C411,170.346,403.154,162.5,393.51,162.5z"/>
	<g>
		<path d="M443,114.5h-68v-8.18c0-14.24-11.58-25.82-25.82-25.82h-0.36c-14.24,0-25.82,11.58-25.82,25.82v8.18h-88v-26
			c0-4.42-3.58-8-8-8h-36c-4.42,0-8,3.58-8,8v26h-25v-36c0-4.42-3.58-8-8-8H80c-4.42,0-8,3.58-8,8v36H8c-4.42,0-8,3.58-8,8v250
			c0,4.42,3.58,8,8,8h435c4.42,0,8-3.58,8-8v-250C451,118.08,447.42,114.5,443,114.5z M339,106.32c0-5.41,4.41-9.82,9.82-9.82h0.36
			c5.41,0,9.82,4.41,9.82,9.82v8.18h-20V106.32z M199,96.5h20v18h-20V96.5z M88,86.5h54v28H88V86.5z M435,364.5H16v-234h419V364.5z"
			/>
		<path d="M235.5,147C180.08,147,135,192.08,135,247.5S180.08,348,235.5,348S336,302.92,336,247.5S290.92,147,235.5,147z M235.5,332
			c-46.59,0-84.5-37.91-84.5-84.5s37.91-84.5,84.5-84.5s84.5,37.91,84.5,84.5S282.09,332,235.5,332z"/>
		<path d="M235.5,184.5c-34.74,0-63,28.26-63,63s28.26,63,63,63s63-28.26,63-63S270.24,184.5,235.5,184.5z M235.5,294.5
			c-25.92,0-47-21.08-47-47s21.08-47,47-47s47,21.08,47,47S261.42,294.5,235.5,294.5z"/>
		<path d="M228.5,215.5c-13.79,0-25,11.21-25,25s11.21,25,25,25s25-11.21,25-25S242.29,215.5,228.5,215.5z M228.5,249.5
			c-4.96,0-9-4.04-9-9s4.04-9,9-9s9,4.04,9,9S233.46,249.5,228.5,249.5z"/>
		<path d="M101,154.5H51c-4.42,0-8,3.58-8,8v35.33c0,4.42,3.58,8,8,8h50c4.42,0,8-3.58,8-8V162.5C109,158.08,105.42,154.5,101,154.5
			z M93,189.83H59V170.5h34V189.83z"/>
		<path d="M101,221.83H51c-4.42,0-8,3.59-8,8v35.34c0,4.41,3.58,8,8,8h50c4.42,0,8-3.59,8-8v-35.34
			C109,225.42,105.42,221.83,101,221.83z M93,257.17H59v-19.34h34V257.17z"/>
		<path d="M101,289.17H51c-4.42,0-8,3.58-8,8v35.33c0,4.42,3.58,8,8,8h50c4.42,0,8-3.58,8-8v-35.33
			C109,292.75,105.42,289.17,101,289.17z M93,324.5H59v-19.33h34V324.5z"/>
		<path d="M393.51,154.5h-15.02c-14.05,0-25.49,11.44-25.49,25.49v0.35c0,14.06,11.44,25.49,25.49,25.49h15.02
			c14.05,0,25.49-11.43,25.49-25.49v-0.35C419,165.94,407.56,154.5,393.51,154.5z M403,180.34c0,5.24-4.26,9.49-9.49,9.49h-15.02
			c-5.23,0-9.49-4.25-9.49-9.49v-0.35c0-5.23,4.26-9.49,9.49-9.49h15.02c5.23,0,9.49,4.26,9.49,9.49V180.34z"/>
	</g>
</g>
<g>
</g>
<g>
</g>
<g>
</g>
<g>
</g>
<g>
</g>
<g>
</g>
<g>
</g>
<g>
</g>
<g>
</g>
<g>
</g>
<g>
</g>
<g>
</g>
<g>
</g>
<g>
</g>
<g>
</g>
</svg>
